<svg width="24" height="25" viewBox="0 0 24 25" fill="none" xmlns="http://www.w3.org/2000/svg">
<path d="M12.0053 6.54979C8.5982 6.54979 5.84999 9.29661 5.84999 12.702C5.84999 16.1074 8.5982 18.8542 12.0053 18.8542C15.4125 18.8542 18.1607 16.1074 18.1607 12.702C18.1607 9.29661 15.4125 6.54979 12.0053 6.54979ZM12.0053 16.7018C9.80356 16.7018 8.00356 14.908 8.00356 12.702C8.00356 10.496 9.7982 8.70227 12.0053 8.70227C14.2125 8.70227 16.0071 10.496 16.0071 12.702C16.0071 14.908 14.2071 16.7018 12.0053 16.7018ZM19.8482 6.29813C19.8482 7.09594 19.2053 7.73312 18.4125 7.73312C17.6143 7.73312 16.9768 7.09059 16.9768 6.29813C16.9768 5.50568 17.6196 4.86315 18.4125 4.86315C19.2053 4.86315 19.8482 5.50568 19.8482 6.29813ZM23.925 7.75454C23.8339 5.8323 23.3946 4.12959 21.9857 2.72673C20.5821 1.32388 18.8786 0.884813 16.9553 0.788434C14.9732 0.675991 9.03213 0.675991 7.04999 0.788434C5.13213 0.879459 3.42856 1.31852 2.01963 2.72138C0.610704 4.12424 0.176775 5.82694 0.0803467 7.74918C-0.0321533 9.73032 -0.0321533 15.6684 0.0803467 17.6495C0.171418 19.5717 0.610704 21.2744 2.01963 22.6773C3.42856 24.0802 5.12678 24.5192 7.04999 24.6156C9.03213 24.7281 14.9732 24.7281 16.9553 24.6156C18.8786 24.5246 20.5821 24.0855 21.9857 22.6773C23.3893 21.2744 23.8286 19.5717 23.925 17.6495C24.0375 15.6684 24.0375 9.73567 23.925 7.75454ZM21.3643 19.7752C20.9464 20.8247 20.1375 21.6332 19.0821 22.0562C17.5018 22.6827 13.7518 22.5381 12.0053 22.5381C10.2589 22.5381 6.50356 22.6773 4.92856 22.0562C3.87856 21.6385 3.06963 20.83 2.64642 19.7752C2.01963 18.1957 2.16428 14.4476 2.16428 12.702C2.16428 10.9565 2.02499 7.20303 2.64642 5.62883C3.06428 4.57936 3.8732 3.77085 4.92856 3.34785C6.50892 2.72138 10.2589 2.86595 12.0053 2.86595C13.7518 2.86595 17.5071 2.72673 19.0821 3.34785C20.1321 3.76549 20.9411 4.57401 21.3643 5.62883C21.9911 7.20838 21.8464 10.9565 21.8464 12.702C21.8464 14.4476 21.9911 18.201 21.3643 19.7752Z" fill="#FFF9EB"/>
</svg>
