<svg width="24" height="20" viewBox="0 0 24 20" fill="none" xmlns="http://www.w3.org/2000/svg">
<path d="M21.533 5.16505C21.5482 5.3759 21.5482 5.5868 21.5482 5.79766C21.5482 12.229 16.599 19.6394 7.5533 19.6394C4.76648 19.6394 2.17767 18.8411 0 17.4555C0.395953 17.5007 0.776625 17.5157 1.18781 17.5157C3.48727 17.5157 5.60405 16.7476 7.29441 15.4372C5.13197 15.392 3.31978 13.9913 2.69541 12.0634C3 12.1085 3.30455 12.1387 3.62437 12.1387C4.06598 12.1387 4.50764 12.0784 4.91878 11.973C2.66498 11.5211 0.974578 9.5631 0.974578 7.1984V7.13817C1.62937 7.49966 2.39086 7.72558 3.19791 7.75567C1.87303 6.88207 1.00505 5.39097 1.00505 3.70404C1.00505 2.80034 1.24866 1.97195 1.67508 1.24897C4.09641 4.20108 7.73602 6.12896 11.8172 6.33986C11.7411 5.97838 11.6954 5.60187 11.6954 5.22532C11.6954 2.54429 13.8883 0.360352 16.6141 0.360352C18.0304 0.360352 19.3095 0.94776 20.208 1.89665C21.3197 1.6858 22.3857 1.27911 23.3299 0.721837C22.9643 1.8515 22.1877 2.80039 21.1674 3.40282C22.1573 3.29744 23.1167 3.02627 23.9999 2.64976C23.33 3.61368 22.4924 4.47216 21.533 5.16505Z" fill="#FFF9EB"/>
</svg>
