<svg width="88" height="80" viewBox="0 0 88 80" fill="none" xmlns="http://www.w3.org/2000/svg">
<path d="M71.4141 24.3333V16.5H63.5807V8.66665H71.4141V0.833313H79.2474V8.66665H87.0807V16.5H79.2474V24.3333H71.4141ZM8.7474 79.1666C6.59323 79.1666 4.74979 78.4003 3.21706 76.8676C1.68173 75.3322 0.914062 73.4875 0.914062 71.3333V24.3333C0.914062 22.1791 1.68173 20.3357 3.21706 18.803C4.74979 17.2676 6.59323 16.5 8.7474 16.5H21.0849L28.3307 8.66665H51.8307V16.5H31.7578L24.6099 24.3333H8.7474V71.3333H71.4141V36.0833H79.2474V71.3333C79.2474 73.4875 78.481 75.3322 76.9483 76.8676C75.413 78.4003 73.5682 79.1666 71.4141 79.1666H8.7474ZM40.0807 65.4583C44.9766 65.4583 49.1387 63.7454 52.5671 60.3196C55.9928 56.8913 57.7057 52.7291 57.7057 47.8333C57.7057 42.9375 55.9928 38.7754 52.5671 35.347C49.1387 31.9212 44.9766 30.2083 40.0807 30.2083C35.1849 30.2083 31.0228 31.9212 27.5944 35.347C24.1686 38.7754 22.4557 42.9375 22.4557 47.8333C22.4557 52.7291 24.1686 56.8913 27.5944 60.3196C31.0228 63.7454 35.1849 65.4583 40.0807 65.4583ZM40.0807 57.625C37.3391 57.625 35.0217 56.6785 33.1287 54.7854C31.2356 52.8923 30.2891 50.575 30.2891 47.8333C30.2891 45.0916 31.2356 42.7743 33.1287 40.8812C35.0217 38.9882 37.3391 38.0416 40.0807 38.0416C42.8224 38.0416 45.1398 38.9882 47.0328 40.8812C48.9259 42.7743 49.8724 45.0916 49.8724 47.8333C49.8724 50.575 48.9259 52.8923 47.0328 54.7854C45.1398 56.6785 42.8224 57.625 40.0807 57.625Z" fill="white"/>
</svg>
