<svg width="20" height="21" viewBox="0 0 20 21" fill="none" xmlns="http://www.w3.org/2000/svg">
<path fill-rule="evenodd" clip-rule="evenodd" d="M13.8906 11.4417C15.0323 12.2167 15.8323 13.2667 15.8323 14.6667V17.1667H19.1656V14.6667C19.1656 12.85 16.1906 11.775 13.8906 11.4417Z" fill="#000"/>
<path d="M7.4974 10.5C9.33835 10.5 10.8307 9.00763 10.8307 7.16668C10.8307 5.32573 9.33835 3.83334 7.4974 3.83334C5.65645 3.83334 4.16406 5.32573 4.16406 7.16668C4.16406 9.00763 5.65645 10.5 7.4974 10.5Z" fill="#000"/>
<path fill-rule="evenodd" clip-rule="evenodd" d="M12.5026 10.5C14.3443 10.5 15.8359 9.00835 15.8359 7.16668C15.8359 5.32501 14.3443 3.83334 12.5026 3.83334C12.1109 3.83334 11.7443 3.91668 11.3943 4.03334C12.1114 4.92019 12.5026 6.02618 12.5026 7.16668C12.5026 8.30718 12.1114 9.41316 11.3943 10.3C11.7443 10.4167 12.1109 10.5 12.5026 10.5ZM7.5026 11.3333C5.2776 11.3333 0.835938 12.45 0.835938 14.6667V17.1667H14.1693V14.6667C14.1693 12.45 9.7276 11.3333 7.5026 11.3333Z" fill="#000"/>
</svg>
