<svg width="16" height="21" viewBox="0 0 16 21" fill="none" xmlns="http://www.w3.org/2000/svg">
<path d="M4 10.5H12V8.5H4V10.5ZM4 6.5H12V4.5H4V6.5ZM15.95 18.975L11.9 13.7C11.6167 13.3167 11.2667 13.0207 10.85 12.812C10.4333 12.604 9.98333 12.5 9.5 12.5H0V2.5C0 1.95 0.196 1.479 0.588 1.087C0.979333 0.695667 1.45 0.5 2 0.5H14C14.55 0.5 15.021 0.695667 15.413 1.087C15.8043 1.479 16 1.95 16 2.5V18.5C16 18.5833 15.996 18.6627 15.988 18.738C15.9793 18.8127 15.9667 18.8917 15.95 18.975ZM2 20.5C1.45 20.5 0.979333 20.3043 0.588 19.913C0.196 19.521 0 19.05 0 18.5V14.5H9.5C9.66667 14.5 9.821 14.5377 9.963 14.613C10.1043 14.6877 10.225 14.7917 10.325 14.925L14.525 20.425C14.4417 20.4583 14.3543 20.4793 14.263 20.488C14.171 20.496 14.0833 20.5 14 20.5H2Z" fill="#2BCD3E"/>
</svg>
