<svg width="28" height="28" viewBox="0 0 28 28" fill="none" xmlns="http://www.w3.org/2000/svg">
<path d="M21 28C22.8565 28 24.637 27.2625 25.9497 25.9497C27.2625 24.637 28 22.8565 28 21C28 19.1435 27.2625 17.363 25.9497 16.0503C24.637 14.7375 22.8565 14 21 14C19.1435 14 17.363 14.7375 16.0503 16.0503C14.7375 17.363 14 19.1435 14 21C14 22.8565 14.7375 24.637 16.0503 25.9497C17.363 27.2625 19.1435 28 21 28ZM22 18V20H24C24.2652 20 24.5196 20.1054 24.7071 20.2929C24.8946 20.4804 25 20.7348 25 21C25 21.2652 24.8946 21.5196 24.7071 21.7071C24.5196 21.8946 24.2652 22 24 22H22V24C22 24.2652 21.8946 24.5196 21.7071 24.7071C21.5196 24.8946 21.2652 25 21 25C20.7348 25 20.4804 24.8946 20.2929 24.7071C20.1054 24.5196 20 24.2652 20 24V22H18C17.7348 22 17.4804 21.8946 17.2929 21.7071C17.1054 21.5196 17 21.2652 17 21C17 20.7348 17.1054 20.4804 17.2929 20.2929C17.4804 20.1054 17.7348 20 18 20H20V18C20 17.7348 20.1054 17.4804 20.2929 17.2929C20.4804 17.1054 20.7348 17 21 17C21.2652 17 21.5196 17.1054 21.7071 17.2929C21.8946 17.4804 22 17.7348 22 18ZM18 6C18 7.5913 17.3679 9.11742 16.2426 10.2426C15.1174 11.3679 13.5913 12 12 12C10.4087 12 8.88258 11.3679 7.75736 10.2426C6.63214 9.11742 6 7.5913 6 6C6 4.4087 6.63214 2.88258 7.75736 1.75736C8.88258 0.632141 10.4087 0 12 0C13.5913 0 15.1174 0.632141 16.2426 1.75736C17.3679 2.88258 18 4.4087 18 6Z" fill="#FE5200"/>
<path d="M0 22C0 24 2 24 2 24H12.512C12.172 23.0364 11.9989 22.0218 12 21C11.9987 19.7137 12.2737 18.4422 12.8065 17.2714C13.3392 16.1006 14.1173 15.058 15.088 14.214C14.154 14.076 13.128 14 12 14C2 14 0 20 0 22Z" fill="#FE5200"/>
</svg>
