<svg width="20" height="16" viewBox="0 0 20 16" fill="none" xmlns="http://www.w3.org/2000/svg">
<path d="M5.44879 0.799805L0.400391 5.8482V4.1514L3.75199 0.799805H5.44879ZM13.8488 0.799805L12.092 2.5566C11.7097 2.33666 11.2949 2.1787 10.8632 2.0886L12.152 0.799805H13.8488ZM12.5444 4.6074C12.2517 4.13823 11.8346 3.7594 11.3395 3.51303C10.8445 3.26665 10.2908 3.16238 9.73999 3.2118C9.08862 3.26855 8.47363 3.53655 7.9886 3.975C7.50357 4.41346 7.17506 4.99837 7.05306 5.64072C6.93106 6.28307 7.02226 6.9477 7.31277 7.53345C7.60328 8.1192 8.0772 8.594 8.66241 8.8856C9.24762 9.1772 9.91207 9.26964 10.5546 9.14883C11.1972 9.02803 11.7827 8.70061 12.2221 8.2164C12.6615 7.73218 12.9306 7.11769 12.9886 6.46643C13.0465 5.81517 12.8901 5.1628 12.5432 4.6086L12.5444 4.6074ZM13.4084 3.7434C13.6544 4.083 13.85 4.4598 13.9844 4.8654L18.0356 0.815405C17.9576 0.805129 17.879 0.799918 17.8004 0.799805H16.352L13.4084 3.7434ZM7.00039 10.3998C6.5231 10.4001 6.06545 10.5899 5.72795 10.9274C5.39045 11.2649 5.20071 11.7225 5.20039 12.1998V15.1998H14.8004V12.1998C14.8007 11.9633 14.7544 11.7291 14.664 11.5106C14.5737 11.2921 14.4411 11.0935 14.2739 10.9263C14.1067 10.7591 13.9081 10.6265 13.6896 10.5362C13.4711 10.4458 13.2369 10.3995 13.0004 10.3998H7.00039ZM13.0004 9.1998C13.2608 9.1998 13.5128 9.2334 13.754 9.2958L19.6004 3.447V2.5998C19.6004 2.349 19.5488 2.1114 19.4564 1.8942L14.0564 7.2954C13.861 8.01842 13.4757 8.67597 12.9404 9.1998H13.0004ZM15.29 10.2618C15.56 10.5798 15.764 10.9542 15.8828 11.3658L19.6004 7.6482V5.9514L15.29 10.2618ZM16.0004 15.1998V13.7514L19.6004 10.1514V11.8482L16.2488 15.1998H16.0004ZM4.00039 14.8482V13.1514L1.96639 15.1854C2.04319 15.195 2.12239 15.1998 2.20039 15.1998H3.64879L4.00039 14.8482ZM5.88919 7.0638C5.98039 7.5018 6.14119 7.9158 6.35719 8.2926L0.544391 14.1054C0.449192 13.8824 0.400206 13.6423 0.400391 13.3998V12.5514L5.88919 7.0626V7.0638ZM9.64879 0.799805L0.400391 10.0482V8.3514L7.95199 0.799805H9.64879Z" fill="#C61010"/>
</svg>
