<svg width="144" height="144" viewBox="0 0 144 144" fill="none" xmlns="http://www.w3.org/2000/svg">
<path d="M63.0015 22.5C63.0015 28.4674 60.631 34.1903 56.4114 38.4099C52.1919 42.6295 46.4689 45 40.5015 45C34.5342 45 28.8112 42.6295 24.5916 38.4099C20.3721 34.1903 18.0015 28.4674 18.0015 22.5C18.0015 16.5326 20.3721 10.8097 24.5916 6.5901C28.8112 2.37053 34.5342 0 40.5015 0C46.4689 0 52.1919 2.37053 56.4114 6.5901C60.631 10.8097 63.0015 16.5326 63.0015 22.5ZM101.027 58.977C100.183 58.5542 99.227 58.4075 98.295 58.5578C97.3631 58.708 96.502 59.1474 95.8335 59.814L62.4435 102.204L38.5035 77.256C37.6392 76.6805 36.6024 76.4217 35.569 76.5234C34.5356 76.6251 33.5691 77.0811 32.8335 77.814L0.0195312 117V135C0.0195313 137.387 0.967743 139.676 2.65557 141.364C4.3434 143.052 6.63258 144 9.01953 144H135.02C136.201 144 137.372 143.767 138.464 143.315C139.556 142.863 140.548 142.2 141.383 141.364C142.219 140.528 142.882 139.536 143.334 138.444C143.787 137.352 144.02 136.182 144.02 135V94.5L101.027 58.977Z" fill="#BDBDBD"/>
</svg>
