<svg width="88" height="88" viewBox="0 0 88 88" fill="none" xmlns="http://www.w3.org/2000/svg">
<path d="M11 22.9167C11 19.7562 12.2555 16.7251 14.4903 14.4903C16.7251 12.2555 19.7562 11 22.9167 11H32.7122C33.4415 11 34.141 11.2897 34.6567 11.8055C35.1724 12.3212 35.4622 13.0207 35.4622 13.75C35.4622 14.4793 35.1724 15.1788 34.6567 15.6945C34.141 16.2103 33.4415 16.5 32.7122 16.5H22.9167C21.2149 16.5 19.5828 17.176 18.3794 18.3794C17.176 19.5828 16.5 21.2149 16.5 22.9167V32.7122C16.5 33.4415 16.2103 34.141 15.6945 34.6567C15.1788 35.1724 14.4793 35.4622 13.75 35.4622C13.0207 35.4622 12.3212 35.1724 11.8055 34.6567C11.2897 34.141 11 33.4415 11 32.7122V22.9167ZM52.5378 13.75C52.5378 13.0207 52.8276 12.3212 53.3433 11.8055C53.859 11.2897 54.5585 11 55.2878 11H65.0833C68.2438 11 71.2749 12.2555 73.5097 14.4903C75.7445 16.7251 77 19.7562 77 22.9167V32.7122C77 33.4415 76.7103 34.141 76.1945 34.6567C75.6788 35.1724 74.9793 35.4622 74.25 35.4622C73.5207 35.4622 72.8212 35.1724 72.3055 34.6567C71.7897 34.141 71.5 33.4415 71.5 32.7122V22.9167C71.5 21.2149 70.824 19.5828 69.6206 18.3794C68.4172 17.176 66.7851 16.5 65.0833 16.5H55.2878C54.5585 16.5 53.859 16.2103 53.3433 15.6945C52.8276 15.1788 52.5378 14.4793 52.5378 13.75ZM13.75 52.5378C14.4793 52.5378 15.1788 52.8276 15.6945 53.3433C16.2103 53.859 16.5 54.5585 16.5 55.2878V65.0833C16.5 66.7851 17.176 68.4172 18.3794 69.6206C19.5828 70.824 21.2149 71.5 22.9167 71.5H32.7122C33.4415 71.5 34.141 71.7897 34.6567 72.3055C35.1724 72.8212 35.4622 73.5207 35.4622 74.25C35.4622 74.9793 35.1724 75.6788 34.6567 76.1945C34.141 76.7103 33.4415 77 32.7122 77H22.9167C19.7562 77 16.7251 75.7445 14.4903 73.5097C12.2555 71.2749 11 68.2438 11 65.0833V55.2878C11 54.5585 11.2897 53.859 11.8055 53.3433C12.3212 52.8276 13.0207 52.5378 13.75 52.5378ZM74.25 52.5378C74.9793 52.5378 75.6788 52.8276 76.1945 53.3433C76.7103 53.859 77 54.5585 77 55.2878V65.0833C77 68.2438 75.7445 71.2749 73.5097 73.5097C71.2749 75.7445 68.2438 77 65.0833 77H55.2878C54.5585 77 53.859 76.7103 53.3433 76.1945C52.8276 75.6788 52.5378 74.9793 52.5378 74.25C52.5378 73.5207 52.8276 72.8212 53.3433 72.3055C53.859 71.7897 54.5585 71.5 55.2878 71.5H65.0833C66.7851 71.5 68.4172 70.824 69.6206 69.6206C70.824 68.4172 71.5 66.7851 71.5 65.0833V55.2878C71.5 54.5585 71.7897 53.859 72.3055 53.3433C72.8212 52.8276 73.5207 52.5378 74.25 52.5378ZM49.5 44.9167C49.5 43.458 48.9205 42.059 47.8891 41.0276C46.8576 39.9961 45.4587 39.4167 44 39.4167C42.5413 39.4167 41.1424 39.9961 40.1109 41.0276C39.0795 42.059 38.5 43.458 38.5 44.9167C38.5 46.3754 39.0795 47.7743 40.1109 48.8058C41.1424 49.8372 42.5413 50.4167 44 50.4167C45.4587 50.4167 46.8576 49.8372 47.8891 48.8058C48.9205 47.7743 49.5 46.3754 49.5 44.9167ZM51.0858 28.6238C50.7217 28.0042 50.2019 27.4904 49.5781 27.1335C48.9542 26.7765 48.2479 26.5888 47.5292 26.5888H40.557C39.8519 26.589 39.1586 26.7699 38.5433 27.1143C37.9281 27.4587 37.4113 27.9551 37.0425 28.556L35.4383 31.1667H31.625C30.0448 31.1667 28.5292 31.7944 27.4118 32.9118C26.2944 34.0292 25.6667 35.5448 25.6667 37.125V54.5417C25.6667 56.1219 26.2944 57.6374 27.4118 58.7548C28.5292 59.8722 30.0448 60.5 31.625 60.5H56.375C57.9552 60.5 59.4708 59.8722 60.5882 58.7548C61.7056 57.6374 62.3333 56.1219 62.3333 54.5417V37.125C62.3333 35.5448 61.7056 34.0292 60.5882 32.9118C59.4708 31.7944 57.9552 31.1667 56.375 31.1667H52.58L51.0858 28.6238ZM35.75 44.9167C35.75 42.7286 36.6192 40.6302 38.1664 39.083C39.7135 37.5359 41.812 36.6667 44 36.6667C46.188 36.6667 48.2865 37.5359 49.8336 39.083C51.3808 40.6302 52.25 42.7286 52.25 44.9167C52.25 47.1047 51.3808 49.2031 49.8336 50.7503C48.2865 52.2975 46.188 53.1667 44 53.1667C41.812 53.1667 39.7135 52.2975 38.1664 50.7503C36.6192 49.2031 35.75 47.1047 35.75 44.9167Z" fill="#BDBDBD"/>
<rect x="66" y="6" width="16" height="16" rx="8" fill="#FE5200"/>
<path d="M73.6016 16.2663V14.2663H71.6016V13.5996H73.6016V11.5996H74.2682V13.5996H76.2682V14.2663H74.2682V16.2663H73.6016Z" fill="black"/>
</svg>
