<svg width="24" height="24" viewBox="0 0 24 24" fill="none" xmlns="http://www.w3.org/2000/svg">
<path d="M22.9722 0.916493C22.7519 0.773516 22.5056 0.675342 22.2474 0.62758C21.9891 0.579817 21.724 0.583402 21.4671 0.63813C21.2103 0.692858 20.9667 0.797657 20.7504 0.946538C20.534 1.09542 20.3491 1.28547 20.2062 1.50583L8.99957 18.7798L3.53424 13.7265C3.34142 13.5482 3.11536 13.4096 2.86899 13.3187C2.62261 13.2278 2.36074 13.1863 2.09832 13.1965C1.56834 13.2173 1.06832 13.4477 0.708241 13.8372C0.348166 14.2266 0.157537 14.7431 0.178291 15.2731C0.199045 15.8031 0.429482 16.3031 0.818908 16.6632L7.99491 23.2978C7.99491 23.2978 8.20091 23.4752 8.29624 23.5372C8.51656 23.6802 8.76292 23.7785 9.02124 23.8263C9.27956 23.8741 9.54476 23.8706 9.80171 23.8158C10.0586 23.7611 10.3023 23.6563 10.5187 23.5073C10.7351 23.3584 10.92 23.1683 11.0629 22.9478L23.5616 3.68249C23.7045 3.4622 23.8027 3.21589 23.8505 2.95764C23.8983 2.69939 23.8947 2.43426 23.8399 2.1774C23.7852 1.92054 23.6804 1.67698 23.5315 1.46063C23.3826 1.24428 23.1926 1.05938 22.9722 0.916493Z" fill="#2BCD3E"/>
</svg>
