<svg width="29" height="29" viewBox="0 0 29 29" fill="none" xmlns="http://www.w3.org/2000/svg">
<path d="M21.3332 14C23.2781 14 25.1434 14.7726 26.5186 16.1479C27.8939 17.5232 28.6665 19.3884 28.6665 21.3333C28.6665 23.2783 27.8939 25.1435 26.5186 26.5188C25.1434 27.8941 23.2781 28.6667 21.3332 28.6667C19.3883 28.6667 17.523 27.8941 16.1478 26.5188C14.7725 25.1435 13.9999 23.2783 13.9999 21.3333C13.9999 19.3884 14.7725 17.5232 16.1478 16.1479C17.523 14.7726 19.3883 14 21.3332 14ZM14.0292 16.6667C13.137 18.0594 12.664 19.6793 12.6665 21.3333C12.6665 23.5067 13.4665 25.4933 14.7892 27.016C13.7279 27.2293 12.5759 27.336 11.3332 27.336C6.77187 27.336 3.40787 25.9053 1.35187 23.02C0.909377 22.3987 0.671674 21.6548 0.671875 20.892V19.6653C0.671875 18.8705 0.987439 18.1082 1.54922 17.5459C2.111 16.9836 2.87304 16.6674 3.66787 16.6667H14.0279H14.0292ZM17.8039 20.8627C17.7424 20.799 17.6688 20.7482 17.5875 20.7133C17.5061 20.6783 17.4187 20.6599 17.3301 20.6592C17.2416 20.6584 17.1538 20.6753 17.0719 20.7088C16.99 20.7423 16.9155 20.7918 16.8529 20.8544C16.7903 20.917 16.7408 20.9914 16.7073 21.0734C16.6738 21.1553 16.6569 21.2431 16.6577 21.3316C16.6585 21.4201 16.6769 21.5076 16.7118 21.5889C16.7467 21.6703 16.7975 21.7438 16.8612 21.8053L19.5279 24.472C19.6529 24.597 19.8224 24.6672 19.9992 24.6672C20.176 24.6672 20.3455 24.597 20.4705 24.472L25.8039 19.1387C25.8675 19.0772 25.9183 19.0036 25.9533 18.9223C25.9882 18.8409 26.0066 18.7535 26.0074 18.6649C26.0081 18.5764 25.9913 18.4886 25.9577 18.4067C25.9242 18.3248 25.8747 18.2503 25.8121 18.1877C25.7495 18.1252 25.6751 18.0757 25.5932 18.0421C25.5112 18.0086 25.4235 17.9917 25.3349 17.9925C25.2464 17.9933 25.1589 18.0117 25.0776 18.0466C24.9963 18.0815 24.9227 18.1323 24.8612 18.196L19.9999 23.0573L17.8039 20.8627ZM11.3332 0.67334C12.2087 0.67334 13.0756 0.845778 13.8844 1.18081C14.6933 1.51584 15.4282 2.0069 16.0472 2.62596C16.6663 3.24502 17.1574 3.97995 17.4924 4.78878C17.8274 5.59762 17.9999 6.46453 17.9999 7.34001C17.9999 8.21549 17.8274 9.08239 17.4924 9.89123C17.1574 10.7001 16.6663 11.435 16.0472 12.0541C15.4282 12.6731 14.6933 13.1642 13.8844 13.4992C13.0756 13.8342 12.2087 14.0067 11.3332 14.0067C9.56509 14.0067 7.8694 13.3043 6.61916 12.0541C5.36892 10.8038 4.66654 9.10812 4.66654 7.34001C4.66654 5.5719 5.36892 3.8762 6.61916 2.62596C7.8694 1.37572 9.56509 0.67334 11.3332 0.67334Z" fill="#FAC734"/>
</svg>
