<svg width="16" height="16" viewBox="0 0 16 16" fill="none" xmlns="http://www.w3.org/2000/svg">
<path d="M8.7 15.2998C8.88333 15.1165 8.97933 14.8831 8.988 14.5998C8.996 14.3165 8.90833 14.0831 8.725 13.8998L3.825 8.9998H15C15.2833 8.9998 15.521 8.9038 15.713 8.7118C15.9043 8.52047 16 8.28314 16 7.9998C16 7.71647 15.9043 7.4788 15.713 7.2868C15.521 7.09547 15.2833 6.9998 15 6.9998H3.825L8.725 2.0998C8.90833 1.91647 8.996 1.68314 8.988 1.3998C8.97933 1.11647 8.88333 0.883138 8.7 0.699804C8.51666 0.516471 8.28333 0.424805 8 0.424805C7.71666 0.424805 7.48333 0.516471 7.3 0.699804L0.699997 7.2998C0.599998 7.38314 0.528996 7.48714 0.486996 7.6118C0.445662 7.73714 0.424995 7.86647 0.424995 7.9998C0.424995 8.13314 0.445662 8.25814 0.486996 8.3748C0.528996 8.49147 0.599998 8.5998 0.699997 8.6998L7.3 15.2998C7.48333 15.4831 7.71666 15.5748 8 15.5748C8.28333 15.5748 8.51666 15.4831 8.7 15.2998Z" fill="#000"/>
</svg>
