<svg width="28" height="31" viewBox="0 0 28 31" fill="none" xmlns="http://www.w3.org/2000/svg">
<path d="M18.3608 24.3897V25.4797C18.3608 26.636 17.9014 27.745 17.0838 28.5626C16.2661 29.3803 15.1571 29.8396 14.0008 29.8396C12.8445 29.8396 11.7355 29.3803 10.9179 28.5626C10.1002 27.745 9.64087 26.636 9.64087 25.4797V24.3897M25.6963 22.1709C23.9469 20.0297 22.7118 18.9398 22.7118 13.0368C22.7118 7.63116 19.9514 5.7053 17.6795 4.76995C17.3777 4.64597 17.0936 4.36121 17.0017 4.05125C16.6032 2.6949 15.4859 1.5 14.0008 1.5C12.5157 1.5 11.3978 2.69558 11.0034 4.05261C10.9114 4.36598 10.6273 4.64597 10.3255 4.76995C8.05086 5.70666 5.2932 7.62571 5.2932 13.0368C5.28979 18.9398 4.0547 20.0297 2.30528 22.1709C1.58044 23.0579 2.21535 24.3897 3.48314 24.3897H24.5253C25.7863 24.3897 26.4171 23.0538 25.6963 22.1709Z" stroke="#828282" stroke-width="2" stroke-linecap="round" stroke-linejoin="round"/>
</svg>
