<svg width="30" height="22" viewBox="0 0 30 22" fill="none" xmlns="http://www.w3.org/2000/svg">
<path d="M19.0026 11C21.9493 11 24.3359 8.61337 24.3359 5.66671C24.3359 2.72004 21.9493 0.333374 19.0026 0.333374C16.0559 0.333374 13.6693 2.72004 13.6693 5.66671C13.6693 8.61337 16.0559 11 19.0026 11ZM7.0026 8.33337V5.66671C7.0026 4.93337 6.4026 4.33337 5.66927 4.33337C4.93594 4.33337 4.33594 4.93337 4.33594 5.66671V8.33337H1.66927C0.935938 8.33337 0.335938 8.93337 0.335938 9.66671C0.335938 10.4 0.935938 11 1.66927 11H4.33594V13.6667C4.33594 14.4 4.93594 15 5.66927 15C6.4026 15 7.0026 14.4 7.0026 13.6667V11H9.66927C10.4026 11 11.0026 10.4 11.0026 9.66671C11.0026 8.93337 10.4026 8.33337 9.66927 8.33337H7.0026ZM19.0026 13.6667C15.4426 13.6667 8.33594 15.4534 8.33594 19V20.3334C8.33594 21.0667 8.93594 21.6667 9.66927 21.6667H28.3359C29.0693 21.6667 29.6693 21.0667 29.6693 20.3334V19C29.6693 15.4534 22.5626 13.6667 19.0026 13.6667Z" fill="#00A0E3"/>
</svg>
