<svg width="19" height="12" viewBox="0 0 19 12" fill="none" xmlns="http://www.w3.org/2000/svg">
<path d="M2.05 10.9751C1.71667 11.2085 1.375 11.2251 1.025 11.0251C0.675 10.8251 0.5 10.5251 0.5 10.1251V1.87513C0.5 1.47513 0.675 1.17913 1.025 0.987129C1.375 0.795796 1.71667 0.808462 2.05 1.02513L8.25 5.17513C8.55 5.37513 8.7 5.65013 8.7 6.00013C8.7 6.35013 8.55 6.62513 8.25 6.82513L2.05 10.9751ZM12.05 10.9751C11.7167 11.2085 11.375 11.2251 11.025 11.0251C10.675 10.8251 10.5 10.5251 10.5 10.1251V1.87513C10.5 1.47513 10.675 1.17913 11.025 0.987129C11.375 0.795796 11.7167 0.808462 12.05 1.02513L18.25 5.17513C18.55 5.37513 18.7 5.65013 18.7 6.00013C18.7 6.35013 18.55 6.62513 18.25 6.82513L12.05 10.9751Z" fill="#00A0E3"/>
</svg>
