<svg width="20" height="19" viewBox="0 0 20 19" fill="none" xmlns="http://www.w3.org/2000/svg">
<path d="M7.27 11.669C7.11707 11.747 6.93981 11.7626 6.77562 11.7124C6.61143 11.6622 6.47317 11.5502 6.39 11.4L6.347 11.305L4.529 7.30701C4.52155 7.25896 4.52155 7.21006 4.529 7.16201C4.52885 7.1183 4.53747 7.07501 4.55434 7.03469C4.57121 6.99437 4.596 6.95784 4.62723 6.92726C4.65846 6.89668 4.6955 6.87268 4.73617 6.85666C4.77684 6.84064 4.8203 6.83294 4.864 6.83401C4.93503 6.83251 5.00435 6.85585 5.06 6.90001L7.24 8.42701C7.40162 8.53514 7.59154 8.59323 7.786 8.59401C7.90322 8.59465 8.01943 8.57222 8.128 8.52801L18.175 4.02801C17.1446 2.88994 15.8819 1.98625 14.4723 1.37796C13.0627 0.769677 11.5389 0.470969 10.004 0.502011C4.478 0.502011 0 4.23201 0 8.87001C0.0323779 10.1194 0.363372 11.3429 0.965313 12.4382C1.56725 13.5336 2.42265 14.4689 3.46 15.166C3.57038 15.2474 3.65276 15.3611 3.69575 15.4913C3.73874 15.6215 3.74023 15.7619 3.7 15.893L3.25 17.594C3.22264 17.6715 3.2055 17.7521 3.199 17.834C3.19804 17.8781 3.20603 17.922 3.22248 17.9629C3.23893 18.0039 3.26349 18.0411 3.2947 18.0723C3.32591 18.1035 3.36311 18.1281 3.40406 18.1445C3.44502 18.161 3.48888 18.169 3.533 18.168C3.6001 18.1644 3.66531 18.1445 3.723 18.11L5.903 16.845C6.063 16.747 6.246 16.694 6.434 16.693C6.533 16.693 6.631 16.707 6.724 16.736C7.787 17.036 8.885 17.188 9.989 17.186C15.514 17.186 19.999 13.457 19.999 8.85601C20.0095 7.48377 19.629 6.13692 18.902 4.97301L7.35 11.625L7.27 11.669Z" fill="#0092CF"/>
</svg>
