<svg width="20" height="18" viewBox="0 0 20 18" fill="none" xmlns="http://www.w3.org/2000/svg">
<path d="M2 18C1.45 18 0.979333 17.8043 0.588 17.413C0.196 17.021 0 16.55 0 16V4C0 3.45 0.196 2.97933 0.588 2.588C0.979333 2.196 1.45 2 2 2H12.1C12.0333 2.33333 12 2.66667 12 3C12 3.33333 12.0333 3.66667 12.1 4H2L10 9L13.65 6.725C13.8833 6.94167 14.1377 7.129 14.413 7.287C14.6877 7.44567 14.975 7.58333 15.275 7.7L10 11L2 6V16H18V7.9C18.3833 7.81667 18.7417 7.7 19.075 7.55C19.4083 7.4 19.7167 7.21667 20 7V16C20 16.55 19.8043 17.021 19.413 17.413C19.021 17.8043 18.55 18 18 18H2ZM2 4V16V4ZM17 6C16.1667 6 15.4583 5.70833 14.875 5.125C14.2917 4.54167 14 3.83333 14 3C14 2.16667 14.2917 1.45833 14.875 0.875C15.4583 0.291667 16.1667 0 17 0C17.8333 0 18.5417 0.291667 19.125 0.875C19.7083 1.45833 20 2.16667 20 3C20 3.83333 19.7083 4.54167 19.125 5.125C18.5417 5.70833 17.8333 6 17 6Z" fill="#FFF9EB"/>
</svg>
