<svg width="24" height="24" viewBox="0 0 24 24" fill="none" xmlns="http://www.w3.org/2000/svg">
<path d="M9.2134 18.2727L9.84231 17.8524C9.77317 17.7491 9.67961 17.6644 9.5699 17.6058C9.4602 17.5473 9.33775 17.5167 9.2134 17.5168V18.2727ZM12.237 22.8051L11.6081 23.2239C11.6771 23.3274 11.7707 23.4123 11.8804 23.471C11.9901 23.5297 12.1126 23.5604 12.237 23.5604C12.3615 23.5604 12.484 23.5297 12.5937 23.471C12.7034 23.4123 12.7969 23.3274 12.8659 23.2239L12.237 22.8051ZM15.2606 18.2727V17.5168C15.1363 17.5167 15.0138 17.5473 14.9041 17.6058C14.7944 17.6644 14.7009 17.7491 14.6317 17.8524L15.2606 18.2727ZM8.58449 18.6915L11.6081 23.2239L12.8659 22.3848L9.84231 17.8524L8.58449 18.6915ZM12.8659 23.2239L15.8896 18.6915L14.6317 17.8524L11.6081 22.3848L12.8659 23.2239ZM15.2606 19.0286H21.3079V17.5168H15.2606V19.0286ZM21.3079 19.0286C22.5612 19.0286 23.5756 18.0157 23.5756 16.7609H22.0638C22.0638 17.1797 21.7267 17.5168 21.3079 17.5168V19.0286ZM23.5756 16.7609V3.16518H22.0638V16.7624H23.5756V16.7609ZM23.5756 3.16518C23.5756 1.91037 22.5612 0.897461 21.3079 0.897461V2.40927C21.7267 2.40927 22.0638 2.74641 22.0638 3.16518H23.5756ZM21.3079 0.897461H3.16615V2.40927H21.3079V0.897461ZM3.16615 0.897461C1.91286 0.897461 0.898438 1.91037 0.898438 3.16518H2.41025C2.41025 2.74641 2.74738 2.40927 3.16615 2.40927V0.897461ZM0.898438 3.16518V16.7609H2.41025V3.16518H0.898438ZM0.898438 16.7609C0.898438 18.0157 1.91286 19.0286 3.16615 19.0286V17.5168C3.06683 17.517 2.96845 17.4976 2.87665 17.4597C2.78485 17.4217 2.70144 17.3661 2.6312 17.2958C2.56097 17.2256 2.5053 17.1422 2.46738 17.0504C2.42947 16.9586 2.41005 16.8602 2.41025 16.7609H0.898438ZM3.16615 19.0286H9.2134V17.5168H3.16615V19.0286ZM8.45749 12.992H16.0165V11.4801H8.45749V12.992ZM6.94568 8.45652H17.5284V6.94471H6.94568V8.45652Z" fill="#FFEEE6"/>
</svg>
