<svg width="24" height="24" viewBox="0 0 24 24" fill="none" xmlns="http://www.w3.org/2000/svg">
<path d="M8.7134 18.2729L9.34231 17.8526C9.27317 17.7492 9.17961 17.6645 9.0699 17.606C8.9602 17.5475 8.83775 17.5169 8.7134 17.517V18.2729ZM11.737 22.8053L11.1081 23.2241C11.1771 23.3276 11.2707 23.4125 11.3804 23.4712C11.4901 23.5299 11.6126 23.5606 11.737 23.5606C11.8615 23.5606 11.984 23.5299 12.0937 23.4712C12.2034 23.4125 12.2969 23.3276 12.3659 23.2241L11.737 22.8053ZM14.7606 18.2729V17.517C14.6363 17.5169 14.5138 17.5475 14.4041 17.606C14.2944 17.6645 14.2009 17.7492 14.1317 17.8526L14.7606 18.2729ZM8.08449 18.6917L11.1081 23.2241L12.3659 22.385L9.34231 17.8526L8.08449 18.6917ZM12.3659 23.2241L15.3896 18.6917L14.1317 17.8526L11.1081 22.385L12.3659 23.2241ZM14.7606 19.0288H20.8079V17.517H14.7606V19.0288ZM20.8079 19.0288C22.0612 19.0288 23.0756 18.0159 23.0756 16.7611H21.5638C21.5638 17.1798 21.2267 17.517 20.8079 17.517V19.0288ZM23.0756 16.7611V3.16535H21.5638V16.7626H23.0756V16.7611ZM23.0756 3.16535C23.0756 1.91055 22.0612 0.897636 20.8079 0.897636V2.40945C21.2267 2.40945 21.5638 2.74658 21.5638 3.16535H23.0756ZM20.8079 0.897636H2.66615V2.40945H20.8079V0.897636ZM2.66615 0.897636C1.41286 0.897636 0.398438 1.91055 0.398438 3.16535H1.91025C1.91025 2.74658 2.24738 2.40945 2.66615 2.40945V0.897636ZM0.398438 3.16535V16.7611H1.91025V3.16535H0.398438ZM0.398438 16.7611C0.398438 18.0159 1.41286 19.0288 2.66615 19.0288V17.517C2.56683 17.5172 2.46845 17.4978 2.37665 17.4598C2.28485 17.4219 2.20144 17.3663 2.1312 17.296C2.06097 17.2258 2.0053 17.1424 1.96738 17.0506C1.92947 16.9588 1.91005 16.8604 1.91025 16.7611H0.398438ZM2.66615 19.0288H8.7134V17.517H2.66615V19.0288ZM7.95749 12.9921H15.5165V11.4803H7.95749V12.9921ZM6.44568 8.45669H17.0284V6.94488H6.44568V8.45669Z" fill="#828282"/>
</svg>
