<svg width="24" height="24" viewBox="0 0 24 24" fill="none" xmlns="http://www.w3.org/2000/svg">
<path fill-rule="evenodd" clip-rule="evenodd" d="M24 12C23.9997 14.9284 22.9287 17.7557 20.9886 19.9494C19.0486 22.143 16.3735 23.5516 13.467 23.91L16.32 13.263C16.5335 12.5353 16.5593 11.7653 16.395 11.025C16.2293 10.2715 15.8711 9.57385 15.3555 8.99997H23.622C23.874 9.98003 24.001 10.988 24 12ZM9.78336e-06 12C-0.000121934 15.1637 1.24912 18.1995 3.47593 20.4468C5.70273 22.6941 8.72692 23.9711 11.8905 24L14.0295 16.0185C13.686 16.1922 13.3215 16.3207 12.945 16.401C12.0711 16.5908 11.1603 16.5139 10.3305 16.1805C9.74046 15.9454 9.20716 15.5874 8.76601 15.1305L0.94951 7.31397C0.3209 8.79616 -0.00204917 10.39 9.78336e-06 12ZM7.50601 11.7495L1.66201 5.90397C2.80001 3.97584 4.45455 2.40439 6.4387 1.36714C8.42285 0.329895 10.6575 -0.131802 12.8903 0.0342108C15.123 0.200224 17.2649 0.98733 19.0738 2.30661C20.8827 3.62588 22.2867 5.42475 23.127 7.49997H12.099C11.454 7.48448 10.8134 7.60883 10.221 7.86447C9.4505 8.19344 8.78766 8.73185 8.30774 9.41858C7.82783 10.1053 7.55007 10.9128 7.50601 11.7495ZM12 15C12.7957 15 13.5587 14.6839 14.1213 14.1213C14.6839 13.5587 15 12.7956 15 12C15 11.2043 14.6839 10.4413 14.1213 9.87865C13.5587 9.31604 12.7957 8.99997 12 8.99997C11.2044 8.99997 10.4413 9.31604 9.87869 9.87865C9.31608 10.4413 9.00001 11.2043 9.00001 12C9.00001 12.7956 9.31608 13.5587 9.87869 14.1213C10.4413 14.6839 11.2044 15 12 15Z" fill="#C61010"/>
</svg>
